<?xml version="1.0" encoding="utf-8"?>
<!-- Generator: Adobe Illustrator 25.3.1, SVG Export Plug-In . SVG Version: 6.00 Build 0)  -->
<svg version="1.1" id="Layer_1" xmlns="http://www.w3.org/2000/svg" xmlns:xlink="http://www.w3.org/1999/xlink" x="0px" y="0px"
	 viewBox="0 0 360 288" style="enable-background:new 0 0 360 288;" xml:space="preserve">
<style type="text/css">
	.st0{fill:#164CA0;}
	.st1{fill:#717275;}
</style>
<g>
	<g>
		<g>
			<polygon class="st0" points="81.1,128.9 73.5,128.9 73.5,156.9 101.5,156.9 101.5,150.3 81.1,150.3 			"/>
			<path class="st0" d="M138.7,132c-1.6-1.2-3.6-2.2-6-2.8c-2.3-0.6-5-0.9-7.9-0.9c-2.9,0-5.6,0.3-7.9,0.9c-2.4,0.6-4.4,1.6-6,2.8
				s-2.9,2.8-3.8,4.6c-0.9,1.8-1.3,4-1.3,6.4c0,2.4,0.4,4.5,1.3,6.4c0.9,1.8,2.2,3.4,3.8,4.6c1.7,1.2,3.7,2.2,6,2.8
				c2.4,0.6,5,0.9,7.9,0.9c2.9,0,5.6-0.3,7.9-0.9c2.3-0.6,4.3-1.6,6-2.8c1.6-1.2,2.9-2.8,3.8-4.6c0.9-1.8,1.3-4,1.3-6.4
				c0-2.4-0.4-4.5-1.3-6.4C141.6,134.8,140.3,133.2,138.7,132z M135.7,146.1c-0.3,1-0.9,2-1.8,2.8c-0.8,0.8-2,1.5-3.5,2
				c-1.5,0.5-3.3,0.8-5.6,0.8c-1.5,0-2.9-0.1-4-0.4c-1.2-0.2-2.2-0.6-3-1c-0.8-0.4-1.5-0.9-2.1-1.5c-0.6-0.6-1-1.2-1.4-1.8
				c-0.3-0.6-0.6-1.3-0.7-2c-0.1-0.7-0.2-1.4-0.2-2.1c0-0.7,0.1-1.4,0.2-2.1c0.1-0.7,0.4-1.4,0.7-2c0.3-0.6,0.8-1.2,1.4-1.8
				c0.6-0.6,1.3-1.1,2.1-1.5c0.8-0.4,1.8-0.8,3-1c1.2-0.2,2.5-0.4,4-0.4c2.3,0,4.1,0.3,5.6,0.8c1.5,0.5,2.6,1.2,3.5,2
				c0.8,0.8,1.4,1.8,1.8,2.8c0.3,1,0.5,2.1,0.5,3.1C136.2,144,136,145.1,135.7,146.1z"/>
			<path class="st0" d="M177.7,144.8c0.7-0.4,1.4-1,2-1.6c0.6-0.6,1-1.4,1.3-2.3c0.3-0.9,0.5-1.9,0.5-3.1c0-1.3-0.2-2.6-0.6-3.7
				c-0.4-1.1-1-2-1.9-2.8c-0.9-0.8-2-1.4-3.5-1.8c-1.4-0.4-3.1-0.6-5.2-0.6h-19v28h7.6v-10.3h8.3l8.5,10.3h8.8l-9.2-11.1
				C176.2,145.6,177,145.2,177.7,144.8z M173.7,139.2c-0.1,0.4-0.4,0.7-0.7,0.9c-0.4,0.2-0.8,0.4-1.4,0.5c-0.6,0.1-1.3,0.2-2.2,0.2
				h-10.4v-6h10.4c0.9,0,1.6,0.1,2.2,0.2c0.6,0.1,1.1,0.3,1.4,0.5c0.4,0.2,0.6,0.5,0.7,0.9c0.1,0.4,0.2,0.8,0.2,1.4
				C173.9,138.3,173.8,138.8,173.7,139.2z"/>
			<rect x="193" y="128.9" class="st0" width="7.6" height="28"/>
			<path class="st0" d="M236.6,129c-1.1-0.2-2.2-0.4-3.4-0.5c-1.2-0.1-2.4-0.2-3.8-0.2c-2.9,0-5.5,0.3-7.9,0.9
				c-2.4,0.6-4.5,1.5-6.2,2.8c-1.7,1.2-3.1,2.8-4,4.6c-1,1.8-1.4,4-1.4,6.5c0,2.5,0.5,4.6,1.4,6.5c1,1.8,2.3,3.4,4,4.6
				c1.7,1.2,3.8,2.2,6.2,2.8c2.4,0.6,5,0.9,7.9,0.9c1.3,0,2.6-0.1,3.8-0.2c1.2-0.1,2.3-0.3,3.4-0.5c1.1-0.2,2.1-0.5,3.1-0.8
				c1-0.3,2-0.7,3-1.1v-6.8c-0.8,0.4-1.6,0.9-2.4,1.3c-0.9,0.4-1.8,0.8-2.8,1.1c-1,0.3-2.2,0.6-3.4,0.8c-1.2,0.2-2.6,0.3-4.2,0.3
				c-1.6,0-3-0.1-4.2-0.3c-1.2-0.2-2.3-0.5-3.2-0.9c-0.9-0.4-1.7-0.9-2.3-1.4c-0.6-0.5-1.1-1.1-1.5-1.8c-0.4-0.6-0.7-1.3-0.8-2.1
				c-0.2-0.7-0.2-1.5-0.2-2.2c0-1.1,0.2-2.2,0.6-3.3c0.4-1.1,1-2,2-2.8c0.9-0.8,2.2-1.5,3.8-2c1.6-0.5,3.5-0.7,5.9-0.7
				c1.5,0,2.9,0.1,4.2,0.3c1.2,0.2,2.4,0.5,3.4,0.8c1,0.3,2,0.7,2.8,1.1c0.9,0.4,1.7,0.8,2.4,1.3v-6.8c-1-0.4-2-0.8-3-1.1
				C238.7,129.5,237.7,129.2,236.6,129z"/>
			<path class="st0" d="M271.8,128.9h-8.4l-14.7,28h8.4l2.6-5.3h15.6l2.6,5.3h8.4L271.8,128.9z M262.5,146.2l5.1-10.3l5.1,10.3
				H262.5z"/>
			<path class="st0" d="M196.7,111.9c-2.6,0-4.6,2.1-4.6,4.6c0,2.6,2.1,4.6,4.6,4.6c2.6,0,4.6-2.1,4.6-4.6
				C201.3,114,199.3,111.9,196.7,111.9z"/>
		</g>
	</g>
	<g>
		<path class="st1" d="M99.7,167c-0.3-0.1-0.6-0.2-1-0.3c-0.3-0.1-0.7-0.1-1-0.2c-0.4,0-0.8-0.1-1.2-0.1c-0.5,0-1.1,0-1.5,0.1
			c-0.5,0.1-1,0.2-1.4,0.4c-0.4,0.2-0.8,0.4-1.2,0.7c-0.4,0.3-0.7,0.6-0.9,0.9c-0.3,0.4-0.5,0.8-0.6,1.2c-0.1,0.4-0.2,0.9-0.2,1.5
			c0,0.5,0.1,1,0.2,1.5c0.1,0.4,0.3,0.8,0.6,1.2c0.3,0.4,0.6,0.7,0.9,0.9c0.4,0.3,0.7,0.5,1.2,0.7c0.4,0.2,0.9,0.3,1.4,0.4
			c0.5,0.1,1,0.1,1.5,0.1c0.4,0,0.8,0,1.2-0.1c0.4,0,0.7-0.1,1-0.2c0.3-0.1,0.6-0.2,1-0.3c0.3-0.1,0.6-0.2,0.9-0.4l0.2-0.1V175V174
			v-0.5l-0.4,0.3c-0.2,0.1-0.5,0.3-0.7,0.4c-0.3,0.1-0.6,0.2-0.9,0.3c-0.3,0.1-0.7,0.2-1,0.2c-0.4,0.1-0.7,0.1-1.1,0.1
			c-0.8,0-1.5-0.1-2.1-0.3c-0.6-0.2-1.1-0.4-1.4-0.7c-0.4-0.3-0.6-0.7-0.8-1.1c-0.2-0.4-0.3-0.9-0.3-1.5c0-0.6,0.1-1.1,0.3-1.5
			c0.2-0.4,0.5-0.8,0.8-1.1c0.4-0.3,0.9-0.6,1.4-0.7c0.6-0.2,1.3-0.3,2.1-0.3c0.4,0,0.8,0,1.1,0.1c0.4,0.1,0.7,0.1,1,0.2
			c0.3,0.1,0.6,0.2,0.9,0.3c0.3,0.1,0.5,0.3,0.8,0.4l0.4,0.2v-0.5v-1v-0.2l-0.2-0.1C100.3,167.2,100,167.1,99.7,167z"/>
		<polygon class="st1" points="113.7,166.7 113.6,166.7 113.5,166.7 110.2,170.9 106.8,166.7 106.7,166.7 106.6,166.7 105.7,166.7 
			105.1,166.7 105.5,167.1 109.5,172 109.5,175.6 109.5,175.9 109.8,175.9 110.6,175.9 110.8,175.9 110.8,175.6 110.8,172 
			114.9,167.1 115.2,166.7 114.7,166.7 		"/>
		<path class="st1" d="M128.1,171.5c-0.2-0.2-0.5-0.4-0.8-0.5c0,0-0.1,0-0.2-0.1c0.2-0.1,0.3-0.2,0.5-0.4c0.2-0.2,0.3-0.4,0.4-0.6
			c0.1-0.2,0.1-0.5,0.1-0.8c0-0.3,0-0.7-0.1-0.9c-0.1-0.3-0.2-0.5-0.4-0.7c-0.2-0.2-0.4-0.3-0.6-0.5c-0.2-0.1-0.4-0.2-0.7-0.3
			c-0.2-0.1-0.5-0.1-0.8-0.1c-0.3,0-0.5,0-0.8,0h-4.9h-0.2v0.2v8.7v0.2h0.2h5c0.3,0,0.7,0,1,0c0.3,0,0.6-0.1,0.9-0.1
			c0.3-0.1,0.5-0.2,0.8-0.3c0.2-0.1,0.5-0.3,0.6-0.5c0.2-0.2,0.3-0.4,0.4-0.7c0.1-0.3,0.1-0.6,0.1-1c0-0.4,0-0.7-0.1-1
			C128.5,172,128.4,171.7,128.1,171.5z M126.8,169.7c0,0.1-0.1,0.3-0.3,0.4c-0.2,0.1-0.4,0.2-0.7,0.3c-0.3,0.1-0.8,0.1-1.3,0.1h-3.6
			v-2.5h3.6c0.4,0,0.7,0,1,0.1c0.3,0,0.5,0.1,0.7,0.2c0.2,0.1,0.3,0.1,0.4,0.2c0.1,0.1,0.2,0.2,0.2,0.2c0,0.1,0.1,0.2,0.1,0.3
			c0,0.1,0,0.2,0,0.3C126.9,169.3,126.9,169.5,126.8,169.7z M127.4,173.2c0,0.3,0,0.5-0.1,0.7c-0.1,0.2-0.2,0.3-0.4,0.4
			c-0.2,0.1-0.5,0.2-0.8,0.3c-0.3,0.1-0.8,0.1-1.3,0.1h-4v-3.1h3.8c0.5,0,0.9,0,1.3,0.1c0.3,0.1,0.6,0.2,0.8,0.3
			c0.2,0.1,0.3,0.3,0.4,0.5C127.4,172.7,127.4,172.9,127.4,173.2z"/>
		<polygon class="st1" points="136.6,174.7 136.6,171.6 142.4,171.6 142.7,171.6 142.7,171.4 142.7,170.7 142.7,170.4 142.4,170.4 
			136.6,170.4 136.6,167.9 142.8,167.9 143,167.9 143,167.6 143,166.9 143,166.7 142.8,166.7 135.5,166.7 135.2,166.7 135.2,166.9 
			135.2,175.6 135.2,175.9 135.5,175.9 142.9,175.9 143.1,175.9 143.1,175.6 143.1,174.9 143.1,174.7 142.9,174.7 		"/>
		<path class="st1" d="M156.3,171.9c0.6-0.2,1.1-0.4,1.4-0.8c0.4-0.4,0.6-1,0.6-1.7c0-0.5-0.1-0.9-0.2-1.2c-0.2-0.4-0.4-0.7-0.8-0.9
			c-0.3-0.2-0.8-0.4-1.3-0.5c-0.5-0.1-1.1-0.2-1.8-0.2h-4.4h-0.2v0.2v8.7v0.2h0.2h0.8h0.2v-0.2v-3.5h3.3c0.1,0,0.3,0,0.4,0
			c0.1,0,0.2,0,0.2,0l2.7,3.7l0.1,0.1h0.1h1h0.5l-0.3-0.4L156.3,171.9z M156.8,170.2c-0.1,0.2-0.3,0.3-0.5,0.4
			c-0.3,0.1-0.6,0.2-1.1,0.2c-0.5,0-1.1,0.1-1.8,0.1H151v-3h2.5c0.7,0,1.3,0,1.8,0.1c0.5,0,0.8,0.1,1.1,0.2c0.2,0.1,0.4,0.2,0.5,0.4
			c0.1,0.2,0.2,0.5,0.2,0.8C157,169.7,156.9,170,156.8,170.2z"/>
		<path class="st1" d="M172.1,171.8c-0.3-0.2-0.5-0.4-0.9-0.5c-0.3-0.1-0.7-0.3-1-0.4c-0.4-0.1-0.7-0.2-1.1-0.3
			c-0.4-0.1-0.7-0.2-1.1-0.3c-0.3-0.1-0.7-0.2-1-0.3c-0.3-0.1-0.6-0.2-0.8-0.3c-0.2-0.1-0.4-0.2-0.5-0.4c-0.1-0.1-0.1-0.3-0.1-0.4
			c0-0.2,0.1-0.4,0.2-0.5c0.1-0.2,0.3-0.3,0.5-0.4c0.3-0.1,0.6-0.2,1-0.3c0.4-0.1,0.8-0.1,1.3-0.1c0.4,0,0.8,0,1.1,0.1
			c0.3,0,0.6,0.1,0.9,0.2c0.3,0.1,0.5,0.1,0.7,0.2c0.2,0.1,0.4,0.2,0.6,0.3l0.4,0.2v-0.4v-0.9v-0.2l-0.2,0c-0.3-0.1-0.6-0.1-0.8-0.2
			c-0.3-0.1-0.6-0.1-0.8-0.2c-0.3,0-0.6-0.1-0.9-0.1c-0.3,0-0.6,0-1,0c-0.3,0-0.6,0-1,0c-0.3,0-0.6,0.1-1,0.1
			c-0.3,0.1-0.6,0.2-0.9,0.3c-0.3,0.1-0.5,0.3-0.7,0.5c-0.2,0.2-0.4,0.4-0.5,0.7c-0.1,0.3-0.2,0.6-0.2,0.9c0,0.3,0.1,0.6,0.2,0.9
			c0.2,0.2,0.4,0.5,0.6,0.7c0.3,0.2,0.5,0.3,0.9,0.5c0.3,0.1,0.7,0.2,1,0.4c0.4,0.1,0.7,0.2,1.1,0.3c0.4,0.1,0.7,0.2,1.1,0.3
			c0.4,0.1,0.7,0.2,1,0.3c0.3,0.1,0.6,0.2,0.8,0.3c0.2,0.1,0.4,0.3,0.5,0.4c0.1,0.1,0.2,0.3,0.2,0.5c0,0.2-0.1,0.4-0.2,0.6
			c-0.1,0.2-0.4,0.3-0.6,0.4c-0.3,0.1-0.6,0.2-1,0.3c-0.4,0.1-0.9,0.1-1.4,0.1c-0.7,0-1.4-0.1-2-0.2c-0.6-0.1-1.2-0.3-1.8-0.7
			l-0.4-0.2v0.4v1v0.2l0.2,0.1c0.6,0.2,1.2,0.3,1.8,0.5c0.6,0.1,1.3,0.2,2.1,0.2c0.3,0,0.7,0,1,0c0.3,0,0.7-0.1,1-0.1
			c0.3-0.1,0.7-0.2,0.9-0.3c0.3-0.1,0.6-0.3,0.8-0.5c0.2-0.2,0.4-0.4,0.6-0.7c0.1-0.3,0.2-0.6,0.2-1c0-0.3-0.1-0.7-0.2-0.9
			C172.6,172.3,172.4,172,172.1,171.8z"/>
		<polygon class="st1" points="180.8,174.7 180.8,171.6 186.7,171.6 186.9,171.6 186.9,171.4 186.9,170.7 186.9,170.4 186.7,170.4 
			180.8,170.4 180.8,167.9 187,167.9 187.3,167.9 187.3,167.6 187.3,166.9 187.3,166.7 187,166.7 179.7,166.7 179.5,166.7 
			179.5,166.9 179.5,175.6 179.5,175.9 179.7,175.9 187.1,175.9 187.3,175.9 187.3,175.6 187.3,174.9 187.3,174.7 187.1,174.7 		"/>
		<path class="st1" d="M201.5,167c-0.3-0.1-0.6-0.2-1-0.3c-0.3-0.1-0.7-0.1-1-0.2c-0.4,0-0.8-0.1-1.2-0.1c-0.5,0-1.1,0-1.5,0.1
			c-0.5,0.1-1,0.2-1.4,0.4c-0.4,0.2-0.8,0.4-1.2,0.7c-0.4,0.3-0.7,0.6-0.9,0.9c-0.3,0.4-0.5,0.8-0.6,1.2c-0.1,0.4-0.2,0.9-0.2,1.5
			c0,0.5,0.1,1,0.2,1.5c0.1,0.4,0.3,0.8,0.6,1.2c0.3,0.4,0.6,0.7,0.9,0.9c0.4,0.3,0.7,0.5,1.2,0.7c0.4,0.2,0.9,0.3,1.4,0.4
			c0.5,0.1,1,0.1,1.5,0.1c0.4,0,0.8,0,1.2-0.1c0.4,0,0.7-0.1,1-0.2c0.3-0.1,0.6-0.2,1-0.3c0.3-0.1,0.6-0.2,0.9-0.4l0.2-0.1V175V174
			v-0.5l-0.4,0.3c-0.2,0.1-0.5,0.3-0.7,0.4c-0.3,0.1-0.6,0.2-0.9,0.3c-0.3,0.1-0.7,0.2-1,0.2c-0.4,0.1-0.7,0.1-1.1,0.1
			c-0.8,0-1.5-0.1-2.1-0.3c-0.6-0.2-1.1-0.4-1.4-0.7c-0.4-0.3-0.6-0.7-0.8-1.1c-0.2-0.4-0.3-0.9-0.3-1.5c0-0.6,0.1-1.1,0.3-1.5
			c0.2-0.4,0.5-0.8,0.8-1.1c0.4-0.3,0.9-0.6,1.4-0.7c0.6-0.2,1.3-0.3,2.1-0.3c0.4,0,0.8,0,1.1,0.1c0.4,0.1,0.7,0.1,1,0.2
			c0.3,0.1,0.6,0.2,0.9,0.3c0.3,0.1,0.5,0.3,0.8,0.4l0.4,0.2v-0.5v-1v-0.2l-0.2-0.1C202.1,167.2,201.8,167.1,201.5,167z"/>
		<path class="st1" d="M216.7,166.7h-0.2v0.2v6.1c0,0.2-0.1,0.5-0.2,0.7c-0.1,0.2-0.3,0.4-0.6,0.6c-0.3,0.2-0.6,0.3-1.1,0.4
			c-0.4,0.1-0.9,0.2-1.5,0.2c-0.6,0-1.1-0.1-1.5-0.2c-0.4-0.1-0.8-0.3-1.1-0.4c-0.3-0.2-0.5-0.4-0.6-0.6c-0.1-0.2-0.2-0.5-0.2-0.7
			v-6.1v-0.2h-0.2h-0.8h-0.2v0.2v6c0,0.5,0.1,0.9,0.3,1.3c0.2,0.4,0.5,0.7,0.9,1c0.4,0.3,0.9,0.5,1.5,0.6c0.6,0.1,1.2,0.2,2,0.2
			c0.8,0,1.4-0.1,2-0.2c0.6-0.1,1.1-0.4,1.5-0.6c0.4-0.3,0.7-0.6,0.9-1c0.2-0.4,0.3-0.8,0.3-1.3v-6v-0.2h-0.2H216.7z"/>
		<path class="st1" d="M230.9,171.9c0.6-0.2,1.1-0.4,1.4-0.8c0.4-0.4,0.6-1,0.6-1.7c0-0.5-0.1-0.9-0.2-1.2c-0.2-0.4-0.4-0.7-0.8-0.9
			c-0.3-0.2-0.8-0.4-1.3-0.5c-0.5-0.1-1.1-0.2-1.8-0.2h-4.4h-0.2v0.2v8.7v0.2h0.2h0.8h0.2v-0.2v-3.5h3.3c0.1,0,0.3,0,0.4,0
			c0.1,0,0.2,0,0.2,0l2.7,3.7l0.1,0.1h0.1h1h0.5l-0.3-0.4L230.9,171.9z M231.4,170.2c-0.1,0.2-0.3,0.3-0.5,0.4
			c-0.3,0.1-0.6,0.2-1.1,0.2c-0.5,0-1.1,0.1-1.8,0.1h-2.4v-3h2.5c0.7,0,1.3,0,1.8,0.1c0.5,0,0.8,0.1,1.1,0.2
			c0.2,0.1,0.4,0.2,0.5,0.4c0.1,0.2,0.2,0.5,0.2,0.8C231.6,169.7,231.5,170,231.4,170.2z"/>
		<polygon class="st1" points="239.5,166.7 239.3,166.7 239.3,166.9 239.3,175.6 239.3,175.9 239.5,175.9 240.3,175.9 240.6,175.9 
			240.6,175.6 240.6,166.9 240.6,166.7 240.3,166.7 		"/>
		<polygon class="st1" points="246.2,166.7 245.9,166.7 245.9,166.9 245.9,167.6 245.9,167.9 246.2,167.9 249.9,167.9 249.9,175.6 
			249.9,175.9 250.2,175.9 251,175.9 251.2,175.9 251.2,175.6 251.2,167.9 254.9,167.9 255.2,167.9 255.2,167.6 255.2,166.9 
			255.2,166.7 254.9,166.7 		"/>
		<polygon class="st1" points="268.8,166.7 267.8,166.7 267.7,166.7 267.6,166.7 264.3,170.9 260.9,166.7 260.9,166.7 260.7,166.7 
			259.8,166.7 259.3,166.7 259.6,167.1 263.6,172 263.6,175.6 263.6,175.9 263.9,175.9 264.7,175.9 264.9,175.9 264.9,175.6 
			264.9,172 269,167.1 269.3,166.7 		"/>
	</g>
</g>
</svg>
