<svg xmlns="http://www.w3.org/2000/svg" width="133" height="40" viewBox="0 0 133 40">
    <g fill="none" fill-rule="evenodd">
        <g>
            <path fill="#204388" d="M0 28L0 10 4.591 10 4.591 23.701 17 23.701 17 28z"/>
            <g>
                <path fill="#204388" d="M19 19.5c0-.66-.103-1.317-.307-1.972-.205-.655-.568-1.245-1.09-1.767-.52-.523-1.233-.947-2.135-1.272-.9-.326-2.049-.489-3.443-.489-.935 0-1.757.076-2.467.225-.71.15-1.323.358-1.84.624-.518.265-.952.576-1.303.93-.35.357-.63.738-.839 1.145-.209.406-.357.83-.445 1.272-.087.441-.131.876-.131 1.304 0 .437.044.878.131 1.324.088.445.236.871.445 1.278.208.407.489.787.84 1.138.35.351.784.657 1.302.918.517.262 1.13.468 1.84.617.71.15 1.532.225 2.467.225 1.394 0 2.542-.163 3.443-.488.902-.325 1.614-.75 2.136-1.272.521-.523.884-1.112 1.09-1.767.203-.656.306-1.313.306-1.973m5-.5c0 1.469-.278 2.765-.834 3.89-.556 1.124-1.353 2.065-2.387 2.82-1.036.755-2.291 1.325-3.768 1.711-1.475.386-3.133.579-4.972.579-1.84 0-3.502-.193-4.987-.579-1.484-.386-2.748-.956-3.792-1.712-1.044-.754-1.848-1.695-2.413-2.82C.283 21.766 0 20.47 0 19c0-1.469.283-2.766.847-3.89.565-1.125 1.37-2.064 2.413-2.82 1.044-.755 2.308-1.326 3.792-1.711C8.537 10.193 10.2 10 12.04 10c1.839 0 3.497.193 4.972.579 1.477.385 2.732.956 3.768 1.712 1.034.755 1.83 1.694 2.387 2.82.556 1.123.834 2.42.834 3.889M43 17c0-.362-.043-.67-.129-.925-.085-.254-.235-.46-.448-.62-.213-.157-.497-.273-.854-.346-.356-.072-.8-.109-1.331-.109H34v4h6.238c.531 0 .975-.037 1.331-.11.357-.072.64-.188.854-.346.213-.159.363-.365.448-.62.086-.253.129-.561.129-.924zm-9.209 11H29V11h12.01c1.293 0 2.388.128 3.288.384.9.256 1.631.618 2.195 1.089.564.47.973 1.037 1.227 1.7.254.665.381 1.405.381 2.222 0 .717-.105 1.344-.316 1.88-.211.537-.495.996-.853 1.38-.357.383-.773.708-1.246.97-.474.265-.973.483-1.498.657L50 28h-5.605l-5.373-6.26h-5.23V28zM55 28L60 28 60 11 55 11zM83.194 27.041c-.606.2-1.233.372-1.88.517-.648.145-1.331.255-2.05.33-.717.075-1.487.112-2.309.112-1.743 0-3.348-.187-4.813-.56-1.466-.374-2.727-.936-3.786-1.687-1.059-.75-1.883-1.689-2.472-2.814C65.294 21.815 65 20.502 65 19c0-1.502.294-2.815.884-3.94.589-1.124 1.413-2.062 2.472-2.813 1.059-.751 2.32-1.313 3.786-1.687 1.465-.373 3.07-.56 4.813-.56.822 0 1.592.037 2.31.112.718.075 1.401.185 2.049.33.647.145 1.274.317 1.88.517.606.199 1.209.423 1.806.671v4.159c-.473-.258-.971-.513-1.494-.766-.524-.253-1.101-.481-1.732-.685-.63-.203-1.324-.37-2.08-.498-.755-.128-1.605-.193-2.552-.193-1.453 0-2.66.15-3.618.448-.959.3-1.725.698-2.297 1.195-.573.499-.977 1.069-1.208 1.713-.233.642-.35 1.308-.35 1.997 0 .457.05.907.15 1.35.1.445.266.864.499 1.258.232.394.535.757.909 1.089.373.332.838.618 1.394.859.556.24 1.206.43 1.95.566.742.137 1.6.205 2.57.205.948 0 1.798-.06 2.554-.18.755-.12 1.448-.28 2.08-.48.63-.198 1.207-.424 1.73-.678.524-.252 1.022-.512 1.495-.778v4.158c-.597.25-1.2.473-1.806.672M98 21h7l-3.486-6L98 21zm7.963 3.783h-9.926L94.366 28H89l9.317-17h5.366L113 28h-5.365l-1.672-3.217zM60 3c0 1.657-1.343 3-3 3s-3-1.343-3-3 1.343-3 3-3 3 1.343 3 3" transform="translate(20.000000, 0.000000)"/>
                <path fill="#676867" d="M13.062 37.016c-.422-.05-.815-.07-1.162-.088-.51-.027-.95-.05-1.279-.155-.281-.091-.412-.22-.412-.406 0-.366.588-.584 1.574-.584.79 0 1.545.171 2.307.524l.037.017.588-.593-.052-.031c-.755-.464-1.703-.7-2.816-.7-1.658 0-2.649.55-2.649 1.47 0 .942.855 1.173 2.432 1.27l.308.017c1.31.075 2.03.117 2.03.69 0 .486-.682.778-1.823.778-.94 0-1.758-.212-2.573-.665l-.042-.023-.53.635.041.03c.748.537 1.761.798 3.097.798C13.957 40 15 39.415 15 38.394c0-.798-.598-1.223-1.938-1.378M23.006 37.262L21.074 35 20 35 22.571 38.034 22.571 40 23.428 40 23.428 38.034 26 35 24.925 35zM35.062 37.016c-.422-.05-.815-.07-1.162-.088-.51-.027-.95-.05-1.279-.155-.281-.091-.412-.22-.412-.406 0-.366.588-.584 1.574-.584.79 0 1.545.171 2.307.524l.037.017.588-.593-.052-.031c-.755-.464-1.703-.7-2.816-.7-1.658 0-2.648.55-2.648 1.47 0 .942.854 1.173 2.431 1.27l.309.017c1.308.075 2.03.117 2.03.69 0 .486-.682.778-1.824.778-.94 0-1.758-.212-2.573-.665l-.041-.023-.531.635.041.03c.748.537 1.761.798 3.097.798C35.957 40 37 39.415 37 38.394c0-.798-.597-1.223-1.938-1.378M42 35.84L44.51 35.84 44.51 40 45.49 40 45.49 35.84 48 35.84 48 35 42 35zM54.874 37.828L57.616 37.828 57.616 36.989 54.874 36.989 54.874 35.84 58.819 35.84 58.819 35 54 35 54 40 59 40 59 39.16 54.874 39.16zM68.496 37.932L66.126 35.019 66.11 35 65 35 65 40 65.936 40 65.936 36.066 68.489 39.22 71.063 36.065 71.063 40 72 40 72 35 70.889 35zM82.062 37.016c-.422-.05-.815-.07-1.162-.088-.51-.027-.95-.05-1.279-.155-.281-.091-.412-.22-.412-.406 0-.366.588-.584 1.574-.584.79 0 1.545.171 2.307.524l.037.017.588-.593-.052-.031c-.755-.464-1.703-.7-2.816-.7-1.658 0-2.648.55-2.648 1.47 0 .942.854 1.173 2.431 1.27l.308.017c1.31.075 2.03.117 2.03.69 0 .486-.68.778-1.823.778-.94 0-1.758-.212-2.573-.665l-.042-.023-.53.635.041.03c.748.537 1.761.798 3.097.798C82.957 40 84 39.415 84 38.394c0-.798-.597-1.223-1.938-1.378" transform="translate(20.000000, 0.000000)"/>
            </g>
        </g>
    </g>
</svg>
