<svg width="24" height="24" viewBox="0 0 24 24" fill="none" xmlns="http://www.w3.org/2000/svg">
<path fill-rule="evenodd" clip-rule="evenodd" d="M6.46458 2.87868C7.63616 1.70711 9.53565 1.70711 10.7072 2.87868L12.1214 4.29289C12.1817 4.35317 12.2389 4.41538 12.293 4.47931C12.347 4.41539 12.4042 4.3532 12.4645 4.29293L13.8787 2.87871C15.0503 1.70714 16.9497 1.70714 18.1213 2.87871C19.2929 4.05029 19.2929 5.94978 18.1213 7.12136L17.2427 8H23V14H21V22H3V14H1V8H7.34326L6.46458 7.12132C5.29301 5.94975 5.29301 4.05025 6.46458 2.87868ZM9.29301 7.12132L7.8788 5.70711C7.48827 5.31658 7.48827 4.68342 7.8788 4.29289C8.26932 3.90237 8.90248 3.90237 9.29301 4.29289L10.7072 5.70711C11.0977 6.09763 11.0977 6.7308 10.7072 7.12132C10.3167 7.51184 9.68353 7.51184 9.29301 7.12132ZM13.8787 5.70714L15.2929 4.29293C15.6834 3.9024 16.3166 3.9024 16.7071 4.29293C17.0976 4.68345 17.0976 5.31662 16.7071 5.70714L15.2929 7.12136C14.9024 7.51188 14.2692 7.51188 13.8787 7.12136C13.4882 6.73083 13.4882 6.09767 13.8787 5.70714ZM3 10V12H21V10H3ZM11.0833 14H5V20H11.0833V14ZM12.9166 14V20H19V14H12.9166Z" fill="#160C3C"/>
</svg>
