<svg xmlns="http://www.w3.org/2000/svg" width="32" height="32" viewBox="0 0 32 32">
    <defs>
        <filter id="43qdba7t0a" color-interpolation-filters="auto">
            <feColorMatrix in="SourceGraphic" values="0 0 0 0 0.443137 0 0 0 0 0.450980 0 0 0 0 0.458824 0 0 0 1.000000 0"/>
        </filter>
    </defs>
    <g fill="none" fill-rule="evenodd">
        <g filter="url(#43qdba7t0a)">
            <g>
                <path d="M11.658 1.142c-.062-.067-.15-.105-.242-.104H1.385c-.192 0-.347.155-.347.347v15.23c0 .192.155.347.347.347h2.423v-5.193c0-.764.62-1.384 1.384-1.384h7.616c.764 0 1.384.62 1.384 1.384v5.193h2.423c.192 0 .347-.155.347-.347V6.605c0-.094-.038-.184-.104-.25l-5.2-5.213z" transform="translate(7.000000, 7.000000)"/>
                <path fill="#000" fill-rule="nonzero" d="M17.598 5.628L12.392.408c-.258-.26-.61-.406-.976-.408H1.385C.62 0 0 .62 0 1.385v15.23C0 17.38.62 18 1.385 18h15.23C17.38 18 18 17.38 18 16.615V6.605c0-.366-.144-.717-.402-.977zm-4.444 11.334H4.846v-5.193c0-.19.155-.346.346-.346h7.616c.19 0 .346.155.346.346v5.193zm3.808-.347c0 .192-.155.347-.347.347h-2.423v-5.193c0-.764-.62-1.384-1.384-1.384H5.192c-.764 0-1.384.62-1.384 1.384v5.193H1.385c-.192 0-.347-.155-.347-.347V1.385c0-.192.155-.347.347-.347h10.031c.092 0 .18.037.242.104l5.2 5.213c.066.066.103.156.104.25v10.01z" transform="translate(7.000000, 7.000000)"/>
                <path fill="#000" fill-rule="nonzero" d="M11.25 13.5h-4.5c-.287 0-.52.232-.52.52 0 .286.233.518.52.518h4.5c.287 0 .52-.232.52-.519 0-.287-.233-.519-.52-.519zM8.48 3.462c.288 0 .52.232.52.519 0 .287-.232.519-.52.519H4.328c-.287 0-.52-.232-.52-.52 0-.286.233-.518.52-.518H8.48z" transform="translate(7.000000, 7.000000)"/>
            </g>
        </g>
    </g>
</svg>
