<svg xmlns="http://www.w3.org/2000/svg" width="32" height="32" viewBox="0 0 32 32">
    <defs>
        <filter id="vp7va19saa" color-interpolation-filters="auto">
            <feColorMatrix in="SourceGraphic" values="0 0 0 0 0.443137 0 0 0 0 0.450980 0 0 0 0 0.458824 0 0 0 1.000000 0"/>
        </filter>
    </defs>
    <g fill="none" fill-rule="evenodd">
        <g filter="url(#vp7va19saa)">
            <g fill="#000" fill-rule="nonzero">
                <path d="M14.831 15.313c.26 0 .469.21.469.468 0 .26-.21.469-.469.469H3.27c-.26 0-.469-.21-.469-.469s.21-.469.469-.469H14.83zM9.05 0c3.044 0 5.87 1.58 7.46 4.176 1.592 2.594 1.72 5.83.34 8.543-.117.231-.4.323-.631.206-.232-.117-.324-.4-.207-.631.491-.956.776-2.003.838-3.075H15.3c-.259 0-.469-.21-.469-.469s.21-.469.469-.469h1.55c-.102-1.754-.796-3.422-1.969-4.731l-1.056 1.063c-.189.156-.465.142-.639-.03-.173-.174-.186-.45-.03-.64l1.063-1.055c-1.306-1.153-2.961-1.836-4.7-1.938V2.5c0 .259-.21.469-.469.469s-.469-.21-.469-.469V.95c-1.746.101-3.408.79-4.712 1.956L4.963 4c.172.185.167.473-.012.651-.178.179-.466.184-.651.011L3.206 3.57C2.041 4.873 1.351 6.535 1.25 8.28H2.8c.259 0 .469.21.469.469s-.21.469-.469.469H1.25c.06 1.063.341 2.101.825 3.05.117.231.025.514-.206.631-.232.117-.514.025-.631-.206-1.37-2.713-1.234-5.942.359-8.53C3.189 1.576 6.01-.001 9.05 0z" transform="translate(7.000000, 8.000000)"/>
                <path d="M12.025 6.438c.172-.185.167-.473-.011-.652-.179-.178-.467-.183-.651-.011L10.038 7.1c-.304-.162-.645-.24-.988-.225-1.036 0-1.875.84-1.875 1.875 0 1.036.84 1.875 1.875 1.875 1.036 0 1.875-.84 1.875-1.875.002-.327-.085-.649-.25-.931l1.35-1.381zM9.05 9.655c-.382 0-.726-.232-.869-.586-.143-.354-.057-.76.218-1.025.275-.266.683-.338 1.032-.183.35.155.57.506.557.888-.017.506-.432.907-.938.906z" transform="translate(7.000000, 8.000000)"/>
            </g>
        </g>
    </g>
</svg>
