<svg xmlns="http://www.w3.org/2000/svg" width="32" height="32" viewBox="0 0 32 32">
    <defs>
        <filter id="vpqdea6ema" color-interpolation-filters="auto">
            <feColorMatrix in="SourceGraphic" values="0 0 0 0 0.443137 0 0 0 0 0.450980 0 0 0 0 0.458824 0 0 0 1.000000 0"/>
        </filter>
    </defs>
    <g fill="none" fill-rule="evenodd">
        <g filter="url(#vpqdea6ema)">
            <g>
                <path fill="#000" fill-rule="nonzero" d="M8.08 0c.438 0 .845.224 1.08.591l1.286 1.98h6.268c.71 0 1.286.576 1.286 1.286v10.286c0 .71-.576 1.286-1.286 1.286H1.286c-.71 0-1.286-.576-1.286-1.286V1.286C0 .576.576 0 1.286 0H8.08zm8.634 3.536H1.286c-.178 0-.322.144-.322.321v10.286c0 .177.144.321.322.321h15.428c.178 0 .322-.144.322-.321V3.857c0-.177-.144-.321-.322-.321zM8.081.964H1.286c-.178 0-.322.144-.322.322V2.61c.105-.026.213-.039.322-.039h8.003l-.932-1.459C8.3 1.022 8.2.968 8.094.964H8.08z" transform="translate(7.000000, 8.000000)"/>
            </g>
        </g>
    </g>
</svg>
