<svg xmlns="http://www.w3.org/2000/svg" width="32" height="32" viewBox="0 0 32 32">
    <defs>
        <filter id="932fcncuea" color-interpolation-filters="auto">
            <feColorMatrix in="SourceGraphic" values="0 0 0 0 0.443137 0 0 0 0 0.450980 0 0 0 0 0.458824 0 0 0 1.000000 0"/>
        </filter>
    </defs>
    <g fill="none" fill-rule="evenodd">
        <g filter="url(#932fcncuea)">
            <g>
                <path fill="#FFF" fill-rule="nonzero" d="M8.864 0c2.105-.005 3.954 1.394 4.522 3.421.568 2.027-.287 4.184-2.088 5.272 3.805 1.087 6.43 4.565 6.43 8.523 0 .282-.23.511-.512.511-.283 0-.511-.229-.511-.511 0-4.33-3.51-7.841-7.841-7.841-4.33 0-7.841 3.51-7.841 7.84 0 .283-.23.512-.512.512-.282 0-.511-.229-.511-.511-.002-3.962 2.626-7.445 6.436-8.53-1.793-1.09-2.642-3.24-2.077-5.263C4.924 1.402 6.765.003 8.864 0zm0 1.023c-2.026 0-3.669 1.642-3.669 3.668 0 2.026 1.643 3.668 3.669 3.668s3.668-1.642 3.668-3.668c0-.973-.387-1.906-1.075-2.594-.687-.688-1.62-1.074-2.593-1.074z" transform="translate(7.000000, 7.000000)"/>
            </g>
        </g>
    </g>
</svg>
