<?xml version="1.0" encoding="UTF-8"?>
<svg width="32px" height="32px" viewBox="0 0 32 32" version="1.1" xmlns="http://www.w3.org/2000/svg" xmlns:xlink="http://www.w3.org/1999/xlink">
    <title>5B81FAA4-126B-4E0D-8746-8F21A1C5BF7B</title>
    <defs>
        <filter color-interpolation-filters="auto" id="filter-1">
            <feColorMatrix in="SourceGraphic" type="matrix" values="0 0 0 0 0.443137 0 0 0 0 0.450980 0 0 0 0 0.458824 0 0 0 1.000000 0"></feColorMatrix>
        </filter>
    </defs>
    <g id="Symbols" stroke="none" stroke-width="1" fill="none" fill-rule="evenodd">
        <g id="noun_Delete_3743652" filter="url(#filter-1)">
            <g transform="translate(7.000000, 7.000000)">
                <path d="M9,6.23076923 C9.28520451,6.23449787 9.51550213,6.46479549 9.51923077,6.75 L9.51923077,12.6692308 C9.51923077,12.955994 9.28676324,13.1884615 9,13.1884615 C8.71323676,13.1884615 8.48076923,12.955994 8.48076923,12.6692308 L8.48076923,6.75 C8.48449787,6.46479549 8.71479549,6.23449787 9,6.23076923 L9,6.23076923 Z" id="Path" fill="#000000" fill-rule="nonzero"></path>
                <path d="M5.71153846,6.92307692 C5.99674297,6.92680556 6.22704059,7.15710319 6.23076923,7.44230769 L6.23076923,11.9423077 C6.23076923,12.2290709 5.9983017,12.4615385 5.71153846,12.4615385 C5.42477523,12.4615385 5.19230769,12.2290709 5.19230769,11.9423077 L5.19230769,7.44230769 C5.19603633,7.15710319 5.42633396,6.92680556 5.71153846,6.92307692 L5.71153846,6.92307692 Z" id="Path" fill="#000000" fill-rule="nonzero"></path>
                <path d="M12.2884615,6.92307692 C12.573666,6.92680556 12.8039637,7.15710319 12.8076923,7.44230769 L12.8076923,11.9423077 C12.8076923,12.2290709 12.5752248,12.4615385 12.2884615,12.4615385 C12.0016983,12.4615385 11.7692308,12.2290709 11.7692308,11.9423077 L11.7692308,7.44230769 C11.7729594,7.15710319 12.003257,6.92680556 12.2884615,6.92307692 L12.2884615,6.92307692 Z" id="Path" fill="#000000" fill-rule="nonzero"></path>
                <path d="M17.4807692,2.42307692 L12.8076923,2.42307692 L12.8076923,1.38461538 C12.8076923,0.619913423 12.1877789,0 11.4230769,0 L6.57692308,0 C5.81222112,0 5.19230769,0.619913423 5.19230769,1.38461538 L5.19230769,2.42307692 L0.519230769,2.42307692 C0.232467534,2.42307692 0,2.65554446 0,2.94230769 C0,3.22907093 0.232467534,3.46153846 0.519230769,3.46153846 L2.07692308,3.46153846 L2.07692308,15.2307692 C2.07692308,16.7601732 3.31674992,18 4.84615385,18 L13.1538462,18 C14.6832501,18 15.9230769,16.7601732 15.9230769,15.2307692 L15.9230769,3.46153846 L17.4807692,3.46153846 C17.7675325,3.46153846 18,3.22907093 18,2.94230769 C18,2.65554446 17.7675325,2.42307692 17.4807692,2.42307692 Z M6.23076923,1.38461538 C6.23076923,1.19343989 6.38574759,1.03846154 6.57692308,1.03846154 L11.4230769,1.03846154 C11.6142524,1.03846154 11.7692308,1.19343989 11.7692308,1.38461538 L11.7692308,2.42307692 L6.23076923,2.42307692 L6.23076923,1.38461538 Z M14.8846154,15.2307692 C14.8846154,16.1866467 14.1097236,16.9615385 13.1538462,16.9615385 L4.84615385,16.9615385 C3.89027639,16.9615385 3.11538462,16.1866467 3.11538462,15.2307692 L3.11538462,3.46153846 L14.8846154,3.46153846 L14.8846154,15.2307692 Z" id="Shape" fill="#000000" fill-rule="nonzero"></path>
            </g>
        </g>
    </g>
</svg>
