<svg xmlns="http://www.w3.org/2000/svg" width="32" height="32" viewBox="0 0 32 32">
    <defs>
        <filter id="q9t9mhirwa" color-interpolation-filters="auto">
            <feColorMatrix in="SourceGraphic" values="0 0 0 0 0.443137 0 0 0 0 0.450980 0 0 0 0 0.458824 0 0 0 1.000000 0"/>
        </filter>
    </defs>
    <g fill="none" fill-rule="evenodd">
        <g filter="url(#q9t9mhirwa)">
            <g>
                <path fill="#000" fill-rule="nonzero" d="M15.254.33c.183.19.183.49 0 .68l-.902.897c2.409 1.601 3.445 3.966 3.445 4.78 0 1.27-2.543 6.355-8.899 6.355-1.6.022-3.182-.346-4.608-1.074l-1.074 1.074c-.192.137-.455.115-.622-.051-.167-.167-.189-.43-.052-.622l.903-.897C1.036 9.864 0 7.5 0 6.686 0 5.416 2.542.331 8.898.331c1.6-.022 3.182.346 4.608 1.074L14.581.33c.188-.18.484-.18.673 0zm-1.589 2.263L11.441 4.78c.949 1.265.823 3.035-.296 4.154-1.118 1.118-2.888 1.244-4.153.295l-2.009 2.008.21.102c1.169.507 2.431.763 3.705.75 1.267.016 2.522-.233 3.687-.73.92-.41 1.758-.982 2.472-1.692.562-.56 1.033-1.203 1.399-1.906.122-.24.226-.489.31-.744 0-.089.052-.178.065-.248.012-.07 0-.083 0-.102v-.101c0-.051-.039-.16-.064-.248-.085-.256-.189-.504-.311-.744-.366-.704-.837-1.347-1.399-1.907-.422-.42-.889-.793-1.392-1.112v.038zm-4.767-1.31c-1.266-.015-2.522.234-3.686.732-.92.408-1.758.981-2.473 1.69-.561.56-1.033 1.204-1.398 1.907-.123.24-.227.488-.311.744 0 .089-.051.178-.064.248-.013.07 0 .082 0 .102v.101c0 .051.038.16.064.248.084.256.188.504.311.744.365.703.837 1.347 1.398 1.907.422.42.89.793 1.392 1.112l2.225-2.225c-.949-1.265-.823-3.035.295-4.154 1.118-1.118 2.889-1.244 4.154-.295l2.009-2.008-.21-.102c-1.17-.507-2.432-.763-3.706-.75zm1.907 4.202L7.697 8.593c.887.624 2.094.52 2.86-.247.767-.767.872-1.974.248-2.86zM8.898 4.462c-.812.003-1.558.447-1.948 1.16-.39.712-.362 1.58.073 2.266L10.1 4.81c-.359-.229-.776-.35-1.202-.35z" transform="translate(7.000000, 9.288136)"/>
            </g>
        </g>
    </g>
</svg>
