<?xml version="1.0" encoding="UTF-8"?>
<svg width="32px" height="32px" viewBox="0 0 32 32" version="1.1" xmlns="http://www.w3.org/2000/svg" xmlns:xlink="http://www.w3.org/1999/xlink">
    <title>3E316D5C-97D8-41CB-9546-743DF7C1E7C3</title>
    <defs>
        <filter color-interpolation-filters="auto" id="filter-1">
            <feColorMatrix in="SourceGraphic" type="matrix" values="0 0 0 0 0.443137 0 0 0 0 0.450980 0 0 0 0 0.458824 0 0 0 1.000000 0"></feColorMatrix>
        </filter>
    </defs>
    <g id="Symbols" stroke="none" stroke-width="1" fill="none" fill-rule="evenodd">
        <g id="noun_Notebook_3743686" filter="url(#filter-1)">
            <g transform="translate(7.013844, 7.000000)">
                <path d="M15.5353846,0 C16.3000866,0 16.92,0.619913423 16.92,1.38461538 L16.92,6.29307692 C17.5302663,6.44386712 17.9623731,6.98684352 17.9723098,7.61538462 L17.9723098,10.3846154 C17.9734166,11.0169017 17.5460559,11.5696215 16.9338462,11.7276923 L16.9338462,16.6153846 C16.9338462,17.3800866 16.3139327,18 15.5492308,18 L2.39538462,18 C1.63068265,18 1.01076923,17.3800866 1.01076923,16.6153846 L1.01076923,13.1538462 L0.519230769,13.1538462 C0.232467534,13.1538462 2.36118817e-15,12.9213786 2.36118817e-15,12.6346154 C2.36118817e-15,12.3478521 0.232467534,12.1153846 0.519230769,12.1153846 L1.01076923,12.1153846 L1.01076923,10.7307692 L0.519230769,10.7307692 C0.232467534,10.7307692 2.36118817e-15,10.4983017 2.36118817e-15,10.2115385 C2.36118817e-15,9.92477523 0.232467534,9.69230769 0.519230769,9.69230769 L1.01076923,9.69230769 L1.01076923,8.30769231 L0.519230769,8.30769231 C0.232467534,8.30769231 2.36118817e-15,8.07522477 2.36118817e-15,7.78846154 C2.36118817e-15,7.5016983 0.232467534,7.26923077 0.519230769,7.26923077 L1.01076923,7.26923077 L1.01076923,5.88461538 L0.519230769,5.88461538 C0.232467534,5.88461538 2.36118817e-15,5.65214785 2.36118817e-15,5.36538462 C2.36118817e-15,5.07862138 0.232467534,4.84615385 0.519230769,4.84615385 L1.01076923,4.84615385 L1.01076923,1.38461538 C1.01076923,0.619913423 1.63068265,0 2.39538462,0 L15.5492308,0 L15.5353846,0 Z M15.5353846,1.03846154 L2.38153846,1.03846154 C2.29156274,1.04027903 2.20599645,1.07777443 2.14367269,1.14269502 C2.08134893,1.2076156 2.0473758,1.29464043 2.04915861,1.38461538 L2.04915861,1.38461538 L2.04915861,4.84615385 L2.60307692,4.84615385 C2.88984016,4.84615385 3.12230769,5.07862138 3.12230769,5.36538462 C3.12230769,5.65214785 2.88984016,5.88461538 2.60307692,5.88461538 L2.04915861,5.88461538 L2.04915861,7.26923077 L2.60307692,7.26923077 C2.88984016,7.26923077 3.12230769,7.5016983 3.12230769,7.78846154 C3.12230769,8.07522477 2.88984016,8.30769231 2.60307692,8.30769231 L2.04915861,8.30769231 L2.04915861,9.69230769 L2.60307692,9.69230769 C2.88984016,9.69230769 3.12230769,9.92477523 3.12230769,10.2115385 C3.12230769,10.4983017 2.88984016,10.7307692 2.60307692,10.7307692 L2.04915861,10.7307692 L2.04915861,12.1153846 L2.60307692,12.1153846 C2.88984016,12.1153846 3.12230769,12.3478521 3.12230769,12.6346154 C3.12230769,12.9213786 2.88984016,13.1538462 2.60307692,13.1538462 L2.04915861,13.1538462 L2.04915861,16.6153846 C2.04915861,16.8012808 2.19579095,16.9541027 2.38153846,16.9615385 L15.5353846,16.9615385 C15.6301113,16.9673726 15.7229505,16.9332584 15.791362,16.867478 C15.8597735,16.8016977 15.897501,16.7102672 15.8954691,16.6153846 L15.8954691,16.6153846 L15.8954691,11.7692308 L13.1261538,11.7692308 C12.3614519,11.7692308 11.7415385,11.1493173 11.7415385,10.3846154 L11.7415385,7.61538462 C11.7415385,6.85068265 12.3614519,6.23076923 13.1261538,6.23076923 L15.8954691,6.23076923 L15.8954691,1.38461538 C15.8918593,1.1975854 15.7430745,1.04576413 15.5561538,1.03846154 L15.5353846,1.03846154 Z M16.5738462,7.26923077 L13.1261538,7.26923077 C12.9349784,7.26923077 12.78,7.42420913 12.78,7.61538462 L12.78,10.3846154 C12.78,10.5757909 12.9349784,10.7307692 13.1261538,10.7307692 L16.5876923,10.7307692 C16.7788678,10.7307692 16.9338462,10.5757909 16.9338462,10.3846154 L16.9338462,7.61538462 C16.9338462,7.42420913 16.7788678,7.26923077 16.5876923,7.26923077 L16.5738462,7.26923077 Z" id="Shape" fill="#000000" fill-rule="nonzero"></path>
            </g>
        </g>
    </g>
</svg>