<svg xmlns="http://www.w3.org/2000/svg" width="32" height="32" viewBox="0 0 32 32">
    <defs>
        <filter id="92haya12va" color-interpolation-filters="auto">
            <feColorMatrix in="SourceGraphic" values="0 0 0 0 0.443137 0 0 0 0 0.450980 0 0 0 0 0.458824 0 0 0 1.000000 0"/>
        </filter>
    </defs>
    <g fill="none" fill-rule="evenodd">
        <g filter="url(#92haya12va)">
            <g>
                <path fill="#FFF" fill-rule="nonzero" d="M6.818 9.545H1.364C.61 9.545 0 10.156 0 10.91v5.455c0 .753.61 1.363 1.364 1.363h5.454c.753 0 1.364-.61 1.364-1.363v-5.455c0-.753-.61-1.364-1.364-1.364zm.341 6.819c0 .188-.153.34-.34.34H1.363c-.189 0-.341-.152-.341-.34v-5.455c0-.188.152-.34.34-.34h5.455c.188 0 .341.152.341.34v5.455zM13.636 9.545c-2.259 0-4.09 1.832-4.09 4.091 0 2.26 1.831 4.091 4.09 4.091 2.26 0 4.091-1.831 4.091-4.09 0-2.26-1.831-4.092-4.09-4.092zm0 7.16c-1.694 0-3.068-1.374-3.068-3.069 0-1.694 1.374-3.068 3.068-3.068 1.695 0 3.069 1.374 3.069 3.068.001.815-.321 1.596-.897 2.172-.576.576-1.357.898-2.172.897zM6.818 0H1.364C.61 0 0 .61 0 1.364v5.454c0 .753.61 1.364 1.364 1.364h5.454c.753 0 1.364-.61 1.364-1.364V1.364C8.182.61 7.572 0 6.818 0zm.341 6.818c0 .188-.153.341-.34.341H1.363c-.189 0-.341-.153-.341-.34V1.363c0-.189.152-.341.34-.341h5.455c.188 0 .341.152.341.34v5.455zM16.364 0h-5.455c-.753 0-1.364.61-1.364 1.364v5.454c0 .753.611 1.364 1.364 1.364h5.455c.753 0 1.363-.61 1.363-1.364V1.364C17.727.61 17.117 0 16.364 0zm.34 6.818c0 .188-.152.341-.34.341h-5.455c-.188 0-.34-.153-.34-.34V1.363c0-.189.152-.341.34-.341h5.455c.188 0 .34.152.34.34v5.455z" transform="translate(7.000000, 7.000000)"/>
            </g>
        </g>
    </g>
</svg>
