<svg xmlns="http://www.w3.org/2000/svg" width="32" height="32" viewBox="0 0 32 32">
    <defs>
        <filter id="1ol4b5oxta" color-interpolation-filters="auto">
            <feColorMatrix in="SourceGraphic" values="0 0 0 0 0.443137 0 0 0 0 0.450980 0 0 0 0 0.458824 0 0 0 1.000000 0"/>
        </filter>
    </defs>
    <g fill="none" fill-rule="evenodd">
        <g filter="url(#1ol4b5oxta)">
            <g>
                <path fill="#FFF" fill-rule="nonzero" d="M16.525 0c.702 0 1.272.57 1.272 1.271v10.487c0 .703-.57 1.272-1.272 1.272h-7.15v2.542h7.945c.263 0 .477.213.477.477 0 .263-.214.476-.477.476H.477c-.264 0-.477-.213-.477-.476 0-.264.213-.477.477-.477h7.945V13.03h-7.15C.568 13.03 0 12.46 0 11.758V1.271C0 .57.57 0 1.271 0h15.254zM3.661 5.339l-.693 1.392c-.082.16-.246.26-.426.26H.953v4.767c0 .176.143.318.318.318h15.254c.176 0 .318-.142.318-.318V6.992H7.627c-.123 0-.242-.047-.33-.134l-.725-.725-1.03 3.083c-.062.198-.246.333-.454.333-.208 0-.392-.135-.455-.333L3.661 5.34zM16.525.953H1.271c-.175 0-.318.143-.318.318v4.767h1.272l1.137-2.282c.09-.174.277-.276.472-.257.196.02.359.157.412.346l.87 3.496.789-2.256c.052-.155.18-.272.338-.31.159-.039.326.006.443.12l1.132 1.13h9.025V1.271c0-.175-.142-.318-.318-.318z" transform="translate(7.000000, 8.000000)"/>
            </g>
        </g>
    </g>
</svg>
