<svg xmlns="http://www.w3.org/2000/svg" width="32" height="32" viewBox="0 0 32 32">
    <defs>
        <filter id="rawnu2rwfa" color-interpolation-filters="auto">
            <feColorMatrix in="SourceGraphic" values="0 0 0 0 0.443137 0 0 0 0 0.450980 0 0 0 0 0.458824 0 0 0 1.000000 0"/>
        </filter>
    </defs>
    <g fill="none" fill-rule="evenodd">
        <g filter="url(#rawnu2rwfa)">
            <g fill="#FFF" fill-rule="nonzero">
                <path d="M13.983 0H1.271C.57 0 0 .57 0 1.271v15.254c0 .702.57 1.272 1.271 1.272h12.712c.702 0 1.271-.57 1.271-1.272V1.271C15.254.57 14.685 0 13.984 0zm.318 16.525c0 .176-.142.318-.318.318H1.271c-.175 0-.318-.142-.318-.318V1.271c0-.175.143-.318.318-.318h12.712c.176 0 .318.143.318.318v15.254z" transform="translate(8.000000, 7.000000)"/>
                <path d="M10.964 12.712c.263 0 .477.213.477.477 0 .263-.214.476-.477.476H4.29c-.263 0-.476-.213-.476-.476 0-.264.213-.477.476-.477h6.674zM10.964 9.534c.263 0 .477.213.477.477 0 .263-.214.476-.477.476H4.29c-.263 0-.476-.213-.476-.476 0-.264.213-.477.476-.477h6.674zM10.964 6.674c.263 0 .477.213.477.476 0 .264-.214.477-.477.477H4.29c-.263 0-.476-.213-.476-.477 0-.263.213-.476.476-.476h6.674zM7.15 3.814c.264 0 .477.213.477.476 0 .264-.213.477-.477.477H4.29c-.263 0-.476-.213-.476-.477 0-.263.213-.476.476-.476h2.86z" transform="translate(8.000000, 7.000000)"/>
            </g>
        </g>
    </g>
</svg>
