<svg xmlns="http://www.w3.org/2000/svg" width="32" height="32" viewBox="0 0 32 32">
    <defs>
        <filter id="tqwpd8anpa" color-interpolation-filters="auto">
            <feColorMatrix in="SourceGraphic" values="0 0 0 0 0.443137 0 0 0 0 0.450980 0 0 0 0 0.458824 0 0 0 1.000000 0"/>
        </filter>
    </defs>
    <g fill="none" fill-rule="evenodd">
        <g filter="url(#tqwpd8anpa)">
            <g>
                <path fill="#000" fill-rule="nonzero" d="M16.27 14.538h-5.54c-.955 0-1.73.775-1.73 1.731 0 .956.775 1.73 1.73 1.73h5.54c.955 0 1.73-.774 1.73-1.73s-.775-1.73-1.73-1.73zm0 2.423h-5.54c-.382 0-.691-.31-.691-.692 0-.382.31-.692.692-.692h5.538c.383 0 .693.31.693.692 0 .382-.31.692-.693.692zM16.27 7.81h-5.54C9.776 7.81 9 8.583 9 9.54s.775 1.73 1.73 1.73h5.54c.955 0 1.73-.774 1.73-1.73s-.775-1.73-1.73-1.73zm0 2.422h-5.54c-.382 0-.691-.31-.691-.692 0-.382.31-.692.692-.692h5.538c.383 0 .693.31.693.692 0 .382-.31.692-.693.692zM7.615 15.73H2.59c-.09 0-.178-.038-.242-.103s-.099-.153-.097-.244v-5.324h4.327c.287 0 .52-.232.52-.52 0-.286-.233-.518-.52-.518H2.25V3.399c.815-.256 1.321-1.069 1.192-1.913C3.312.64 2.585.017 1.73.017.876.017.15.641.02 1.486c-.13.844.376 1.657 1.19 1.913v12.012c0 .764.62 1.384 1.385 1.384h5.02c.135-.002.265-.057.36-.155.094-.097.147-.228.145-.364.005-.14-.045-.276-.14-.378-.094-.103-.226-.164-.366-.169zM1.731 2.443c-.382 0-.692-.31-.692-.692 0-.383.31-.693.692-.693.382 0 .692.31.692.693 0 .382-.31.692-.692.692zM16.27 0H6.576c-.956 0-1.73.775-1.73 1.73 0 .957.774 1.732 1.73 1.732h9.692c.956 0 1.731-.775 1.731-1.731C18 .775 17.225 0 16.27 0zm0 2.423H6.576c-.382 0-.692-.31-.692-.692 0-.383.31-.693.692-.693h9.692c.383 0 .693.31.693.693 0 .382-.31.692-.693.692z" transform="translate(7.000000, 7.000076)"/>
            </g>
        </g>
    </g>
</svg>
