<svg xmlns="http://www.w3.org/2000/svg" width="32" height="32" viewBox="0 0 32 32">
    <defs>
        <filter id="3wksvl2z1a" color-interpolation-filters="auto">
            <feColorMatrix in="SourceGraphic" values="0 0 0 0 0.443137 0 0 0 0 0.450980 0 0 0 0 0.458824 0 0 0 1.000000 0"/>
        </filter>
    </defs>
    <g fill="none" fill-rule="evenodd">
        <g filter="url(#3wksvl2z1a)">
            <g fill="#000" fill-rule="nonzero">
                <path d="M17.48 10.385c.282 0 .512.224.52.505v5.725C18 17.38 17.38 18 16.615 18H1.385C.62 18 0 17.38 0 16.615v-5.711c0-.287.232-.52.52-.52.286 0 .518.233.518.52v5.711c.004.187.153.34.34.347h15.237c.187-.004.34-.153.347-.34v-5.718c.003-.285.234-.516.519-.52z" transform="translate(7.000000, 7.000000)"/>
                <path d="M9 0c.285.004.516.234.52.52v12.634L13.672 9c.202-.198.525-.198.727 0 .099.096.155.229.155.367 0 .138-.056.27-.155.367l-4.403 4.403c-.54.537-1.412.537-1.952 0L3.642 9.734c-.1-.097-.155-.229-.155-.367 0-.138.056-.27.155-.367.202-.202.53-.202.733 0l4.154 4.154V.519C8.531.252 8.734.03 9 0z" transform="translate(7.000000, 7.000000)"/>
            </g>
        </g>
    </g>
</svg>
