<svg xmlns="http://www.w3.org/2000/svg" width="32" height="32" viewBox="0 0 32 32">
    <g fill="none" fill-rule="evenodd">
        <g fill="#717375">
            <path d="M5.806 0c1.38-.003 2.591.913 2.963 2.241.355 1.268-.139 2.612-1.21 3.352l-.158.102c1.176.336 2.18 1.02 2.912 1.921l-.513.431c-.942-1.162-2.38-1.906-3.994-1.906-2.836 0-5.136 2.3-5.136 5.137 0 .185-.15.335-.335.335-.185 0-.335-.15-.335-.335-.001-2.596 1.72-4.877 4.216-5.588-1.175-.714-1.73-2.123-1.36-3.447C3.225.918 4.43.002 5.805 0zm0 .67C4.48.67 3.403 1.746 3.403 3.073S4.48 5.476 5.806 5.476c1.328 0 2.403-1.076 2.403-2.403 0-.637-.253-1.249-.703-1.7C7.055.924 6.444.67 5.806.67z" transform="translate(6.000000, 8.787061)"/>
            <path d="M14.194 2.813c1.378-.004 2.59.913 2.962 2.241.372 1.328-.188 2.74-1.368 3.454C18.281 9.22 20 11.498 20 14.09c0 .185-.15.335-.335.335-.185 0-.335-.15-.335-.335 0-2.837-2.3-5.137-5.136-5.137-2.837 0-5.137 2.3-5.137 5.137 0 .185-.15.335-.335.335-.185 0-.335-.15-.335-.335-.001-2.596 1.72-4.877 4.216-5.588-1.174-.714-1.73-2.123-1.36-3.447.37-1.325 1.575-2.241 2.95-2.243zm0 .67c-1.328 0-2.403 1.076-2.403 2.403s1.075 2.403 2.403 2.403c1.327 0 2.403-1.076 2.403-2.403 0-.637-.254-1.249-.704-1.7-.45-.45-1.062-.703-1.7-.703z" transform="translate(6.000000, 8.787061)"/>
        </g>
    </g>
</svg>
