<svg xmlns="http://www.w3.org/2000/svg" width="32" height="32" viewBox="0 0 32 32">
    <defs>
        <filter id="lfj419kkta" color-interpolation-filters="auto">
            <feColorMatrix in="SourceGraphic" values="0 0 0 0 0.443137 0 0 0 0 0.450980 0 0 0 0 0.458824 0 0 0 1.000000 0"/>
        </filter>
    </defs>
    <g fill="none" fill-rule="evenodd">
        <g filter="url(#lfj419kkta)">
            <g fill="#FFF" fill-rule="nonzero">
                <path d="M1.054 7.332c-.529.085-.918.54-.922 1.075v1.186c.004.535.393.99.922 1.075l.856.154c.173.663.439 1.3.79 1.888l-.505.724c-.308.433-.262 1.025.11 1.405l.834.834c.38.372.972.418 1.405.11l.724-.505c.589.351 1.225.618 1.888.79l.154.856c.085.529.54.919 1.075.922h1.186c.535-.003.99-.393 1.075-.922l.154-.856c.663-.172 1.3-.439 1.888-.79l.746.527c.433.308 1.025.262 1.405-.11l.834-.834c.372-.38.418-.972.11-1.405l-.505-.724c.351-.589.618-1.225.79-1.888l.856-.154c.529-.085.919-.54.922-1.075V8.407c-.003-.535-.393-.99-.922-1.075l-.856-.154c-.172-.663-.439-1.3-.79-1.888l.527-.724c.308-.433.262-1.025-.11-1.405l-.834-.834c-.38-.372-.972-.418-1.405-.11l-.724.505c-.589-.352-1.225-.618-1.888-.79l-.154-.856c-.085-.529-.54-.919-1.075-.922H8.407c-.535.003-.99.393-1.075.922l-.154.856c-.663.172-1.3.439-1.888.79l-.724-.527c-.433-.308-1.025-.262-1.405.11l-.834.834c-.372.38-.418.972-.11 1.405l.505.724c-.351.589-.618 1.225-.79 1.888l-.878.176zM2.7 7.66c.165-.766.47-1.496.9-2.151.096-.147.096-.337 0-.483l-.68-.944c-.065-.088-.055-.209.021-.285l.835-.835c.076-.076.198-.086.285-.022l.944.681c.146.096.336.096.483 0 .655-.43 1.385-.735 2.151-.9.178-.033.318-.173.351-.351l.198-1.142c.021-.104.113-.177.22-.175h1.185c.106-.002.198.071.22.175l.197 1.142c.033.178.173.318.351.351.766.165 1.496.47 2.151.9.147.096.337.096.483 0l.944-.68c.087-.065.209-.055.285.021l.835.835c.076.076.086.197.021.285l-.68.944c-.096.146-.096.336 0 .483.43.655.735 1.385.9 2.151.033.178.173.318.351.351l1.142.198c.104.02.177.113.175.22v1.185c.002.106-.071.198-.175.22l-1.142.197c-.178.033-.318.173-.351.35-.165.767-.47 1.496-.9 2.152-.096.147-.096.337 0 .483l.68.944c.065.087.055.209-.021.285l-.835.834c-.076.077-.198.087-.285.022l-.944-.68c-.146-.097-.336-.097-.483 0-.655.43-1.385.735-2.151.9-.178.033-.318.173-.351.351l-.198 1.142c-.021.103-.113.177-.22.175H8.408c-.106.002-.198-.072-.22-.175l-.197-1.142c-.033-.178-.173-.318-.351-.351-.766-.165-1.496-.47-2.151-.9-.147-.097-.337-.097-.483 0l-.944.68c-.087.065-.209.055-.285-.022l-.835-.834c-.076-.076-.086-.198-.021-.285l.68-.944c.096-.146.096-.336 0-.483-.43-.655-.735-1.385-.9-2.151-.033-.178-.173-.318-.351-.351l-1.142-.198c-.104-.021-.177-.113-.175-.22V8.408c-.002-.106.071-.198.175-.22L2.35 7.99c.18-.022.329-.153.373-.329H2.7z" transform="translate(7.000000, 7.000000)"/>
                <path d="M9 12.402c1.88 0 3.402-1.523 3.402-3.402 0-1.88-1.523-3.402-3.402-3.402C7.12 5.598 5.598 7.12 5.598 9c0 1.88 1.523 3.402 3.402 3.402zm0-5.904c1.023 0 1.945.617 2.334 1.563.39.946.17 2.034-.557 2.754-.726.72-1.816.93-2.758.533C7.076 10.95 6.467 10.023 6.476 9c0-.67.266-1.312.739-1.785.473-.473 1.115-.74 1.785-.74v.023z" transform="translate(7.000000, 7.000000)"/>
            </g>
        </g>
    </g>
</svg>
