<svg xmlns="http://www.w3.org/2000/svg" width="32" height="32" viewBox="0 0 32 32">
    <defs>
        <filter id="jf5iqlelma" color-interpolation-filters="auto">
            <feColorMatrix in="SourceGraphic" values="0 0 0 0 0.443137 0 0 0 0 0.450980 0 0 0 0 0.458824 0 0 0 1.000000 0"/>
        </filter>
    </defs>
    <g fill="none" fill-rule="evenodd">
        <g filter="url(#jf5iqlelma)">
            <g>
                <path fill="#000" fill-rule="nonzero" d="M8.357 0c2.3-.002 4.32 1.523 4.95 3.735.047.167.002.345-.119.47-.12.124-.298.174-.466.131-.168-.042-.3-.17-.347-.337-.572-2.004-2.532-3.28-4.596-2.991-2.063.288-3.599 2.052-3.6 4.135v1.286h11.25c.71 0 1.285.575 1.285 1.285v9c0 .71-.575 1.286-1.285 1.286H1.286C.576 18 0 17.424 0 16.714v-9c0-.71.576-1.285 1.286-1.285h1.928V5.143C3.214 2.303 5.517 0 8.357 0zm7.072 7.393H1.286c-.178 0-.322.144-.322.321v9c0 .178.144.322.322.322h14.143c.177 0 .321-.144.321-.322v-9c0-.177-.144-.321-.321-.321z" transform="translate(8.000000, 7.000000)"/>
            </g>
        </g>
    </g>
</svg>
