<svg xmlns="http://www.w3.org/2000/svg" width="32" height="32" viewBox="0 0 32 32">
    <g fill="none" fill-rule="evenodd">
        <g fill="#717375">
            <path d="M16 7c4.97 0 9 4.03 9 9s-4.03 9-9 9-9-4.03-9-9 4.03-9 9-9zm0 .964c-4.438 0-8.036 3.598-8.036 8.036s3.598 8.036 8.036 8.036c2.131 0 4.175-.847 5.682-2.354 1.507-1.507 2.354-3.55 2.354-5.682 0-4.438-3.598-8.036-8.036-8.036zm3.325 5.56c.178-.179.467-.179.645 0l.057.068c.05.074.078.162.078.254 0 .123-.05.24-.135.323l-4.198 4.206c-.15.15-.354.235-.566.235-.213 0-.417-.084-.567-.235l-2.609-2.609c-.116-.115-.162-.283-.12-.44.042-.159.164-.283.322-.326.158-.043.326.002.443.118l2.53 2.532z"/>
        </g>
    </g>
</svg>
