<svg xmlns="http://www.w3.org/2000/svg" width="32" height="32" viewBox="0 0 32 32">
    <defs>
        <filter id="9io95uos0a" color-interpolation-filters="auto">
            <feColorMatrix in="SourceGraphic" values="0 0 0 0 0.443137 0 0 0 0 0.450980 0 0 0 0 0.458824 0 0 0 1.000000 0"/>
        </filter>
    </defs>
    <g fill="none" fill-rule="evenodd">
        <g filter="url(#9io95uos0a)">
            <g>
                <path fill="#000" fill-rule="nonzero" d="M17.48 16.602c.288 0 .52.233.52.52 0 .286-.232.519-.52.519H.52c-.288 0-.52-.233-.52-.52 0-.286.232-.519.52-.519h16.96zM14.538.762C14.053.274 13.392 0 12.704 0c-.689 0-1.349.274-1.835.762L2.39 9.257c-.36.362-.63.803-.79 1.287l-.824 2.472c-.146.435-.034.916.29 1.242.324.326.804.44 1.24.295l2.472-.83c.485-.16.926-.43 1.288-.79l8.473-8.502c.488-.486.763-1.146.763-1.834 0-.689-.275-1.349-.763-1.835zM5.331 12.2c-.249.244-.55.429-.88.54l-2.471.824c-.036.014-.075.014-.11 0-.09-.03-.139-.125-.112-.215l.824-2.45c.112-.333.296-.635.54-.887l.118-.11 2.202 2.201-.111.097zm.844-.851L3.974 9.146l6.964-6.965 2.216 2.202-6.979 6.965zm7.671-7.699l-2.194-2.201c.618-.54 1.548-.508 2.127.073.58.581.608 1.512.067 2.128z" transform="translate(7.000000, 7.179705)"/>
            </g>
        </g>
    </g>
</svg>
