<svg xmlns="http://www.w3.org/2000/svg" width="32" height="32" viewBox="0 0 32 32">
    <defs>
        <filter id="5j3wgrqy8a" color-interpolation-filters="auto">
            <feColorMatrix in="SourceGraphic" values="0 0 0 0 0.443137 0 0 0 0 0.450980 0 0 0 0 0.458824 0 0 0 1.000000 0"/>
        </filter>
    </defs>
    <g fill="none" fill-rule="evenodd">
        <g filter="url(#5j3wgrqy8a)">
            <g fill="#000" fill-rule="nonzero">
                <path d="M8.357 9.643c.265.003.479.217.482.482v4.179c0 .266-.216.482-.482.482s-.482-.216-.482-.482v-4.179c.003-.265.217-.479.482-.482z" transform="translate(8.000000, 7.000000)"/>
                <path d="M15.429 6.429H13.5v-1.37C13.454 2.252 11.165 0 8.357 0h-.083c-2.808.046-5.06 2.335-5.06 5.143v1.286H1.286C.576 6.429 0 7.004 0 7.714v9C0 17.424.576 18 1.286 18h14.143c.71 0 1.285-.576 1.285-1.286v-9c0-.71-.575-1.285-1.285-1.285zM4.179 5.143v-.07C4.217 2.791 6.077.963 8.357.963h.07c2.281.039 4.109 1.898 4.109 4.179v1.286H4.179V5.143zM15.75 16.714c0 .178-.144.322-.321.322H1.286c-.178 0-.322-.144-.322-.322v-9c0-.177.144-.321.322-.321h14.143c.177 0 .321.144.321.321v9z" transform="translate(8.000000, 7.000000)"/>
            </g>
        </g>
    </g>
</svg>
