<svg xmlns="http://www.w3.org/2000/svg" width="32" height="32" viewBox="0 0 32 32">
    <defs>
        <filter id="31at6i23ja" color-interpolation-filters="auto">
            <feColorMatrix in="SourceGraphic" values="0 0 0 0 0.443137 0 0 0 0 0.450980 0 0 0 0 0.458824 0 0 0 1.000000 0"/>
        </filter>
    </defs>
    <g fill="none" fill-rule="evenodd">
        <g filter="url(#31at6i23ja)">
            <g>
                <path fill="#000" fill-rule="nonzero" d="M12.635 0c.285.004.515.234.519.52v1.21h3.461c.765 0 1.385.62 1.385 1.385v13.5C18 17.38 17.38 18 16.615 18H1.385C.62 18 0 17.38 0 16.615v-13.5c0-.764.62-1.384 1.385-1.384h3.461V.519c0-.287.233-.519.52-.519.286 0 .519.232.519.52v1.21h6.23V.52c.004-.286.234-.516.52-.52zM1.038 6.75v9.865c0 .192.155.347.347.347h15.23c.192 0 .347-.155.347-.347V6.75H1.038zm12.981 6.404c.287 0 .52.232.52.52 0 .286-.233.518-.52.518H3.981c-.287 0-.52-.232-.52-.519 0-.287.233-.52.52-.52h10.038zm0-3.808c.287 0 .52.233.52.52 0 .286-.233.519-.52.519H3.981c-.287 0-.52-.233-.52-.52 0-.286.233-.519.52-.519h10.038zM1.04 5.712h15.923V3.115c0-.19-.155-.346-.347-.346h-3.461v1.212c0 .287-.233.519-.52.519-.286 0-.519-.232-.519-.52V2.77h-6.23v1.21c0 .288-.233.52-.52.52-.286 0-.519-.232-.519-.52V2.77H1.385c-.192 0-.347.154-.347.345v2.597z" transform="translate(7.000000, 7.000000)"/>
            </g>
        </g>
    </g>
</svg>
