<svg xmlns="http://www.w3.org/2000/svg" width="32" height="32" viewBox="0 0 32 32">
    <defs>
        <filter id="xlhundqhba" color-interpolation-filters="auto">
            <feColorMatrix in="SourceGraphic" values="0 0 0 0 0.443137 0 0 0 0 0.450980 0 0 0 0 0.458824 0 0 0 1.000000 0"/>
        </filter>
    </defs>
    <g fill="none" fill-rule="evenodd">
        <g filter="url(#xlhundqhba)">
            <g fill="#000" fill-rule="nonzero">
                <path d="M5.316 7.738c.286.004.515.236.515.521v5.83c0 .285-.23.515-.515.515-.284 0-.514-.23-.514-.514V8.26c0-.286.23-.518.514-.522zM12.52 7.738c.284.004.514.236.514.521v5.83c0 .285-.23.515-.515.515-.284 0-.514-.23-.514-.514V8.26c0-.286.229-.518.514-.522z" transform="translate(7.000000, 7.000000)"/>
                <path d="M16.463 3.622h-3.43v-2.25C13.034.614 12.42 0 11.663 0H6.174c-.758 0-1.372.614-1.372 1.372v2.223h-3.43C.614 3.595 0 4.209 0 4.966v11.662C0 17.386.614 18 1.372 18h15.091c.758 0 1.372-.614 1.372-1.372V4.966c-.015-.747-.624-1.344-1.372-1.344zM5.831 1.399c.007-.184.159-.329.343-.329h5.488c.09 0 .176.036.24.101.063.065.098.152.096.242v2.223H5.824l.007-2.237zm10.975 15.256c0 .19-.153.343-.343.343H1.372c-.19 0-.343-.153-.343-.343V4.994c0-.19.154-.343.343-.343h15.091c.19 0 .343.153.343.343v11.661z" transform="translate(7.000000, 7.000000)"/>
            </g>
        </g>
    </g>
</svg>
