<svg xmlns="http://www.w3.org/2000/svg" width="32" height="32" viewBox="0 0 32 32">
    <defs>
        <filter id="pbn7tav8xa" color-interpolation-filters="auto">
            <feColorMatrix in="SourceGraphic" values="0 0 0 0 0.443137 0 0 0 0 0.450980 0 0 0 0 0.458824 0 0 0 1.000000 0"/>
        </filter>
    </defs>
    <g fill="none" fill-rule="evenodd">
        <g filter="url(#pbn7tav8xa)">
            <g>
                <path fill="#000" fill-rule="nonzero" d="M17.208 8.577c-.3 0-.546.245-.546.546 0 4.288-3.497 7.784-7.785 7.784s-7.784-3.496-7.784-7.784 3.496-7.785 7.784-7.785c2.458 0 4.78 1.175 6.228 3.142h-3.196c-.3 0-.546.245-.546.546 0 .3.245.546.546.546h4.48c.3 0 .546-.246.546-.546V.546c0-.3-.246-.546-.547-.546-.3 0-.546.246-.546.546v3.087C14.176 1.53 11.608.246 8.877.246 3.987.246 0 4.234 0 9.123 0 14.013 3.988 18 8.877 18c4.89 0 8.877-3.988 8.877-8.877 0-.3-.246-.546-.546-.546z" transform="translate(7.122914, 7.000000)"/>
            </g>
        </g>
    </g>
</svg>
