<?xml version="1.0" encoding="UTF-8"?>
<svg width="32px" height="32px" viewBox="0 0 32 32" version="1.1" xmlns="http://www.w3.org/2000/svg" xmlns:xlink="http://www.w3.org/1999/xlink">
    <title>4286DB80-0EC6-4C60-A653-C9D9CA049526</title>
    <defs>
        <filter color-interpolation-filters="auto" id="filter-1">
            <feColorMatrix in="SourceGraphic" type="matrix" values="0 0 0 0 0.443137 0 0 0 0 0.450980 0 0 0 0 0.458824 0 0 0 1.000000 0"></feColorMatrix>
        </filter>
    </defs>
    <g id="Symbols" stroke="none" stroke-width="1" fill="none" fill-rule="evenodd">
        <g id="noun_Router_3743720" filter="url(#filter-1)">
            <g transform="translate(7.000000, 7.000000)">
                <path d="M8.66346164,0.00782632915 C10.0919715,-0.0814555374 11.4596004,0.598145556 12.2511757,1.79063045 C13.042751,2.98311535 13.1380136,4.50731723 12.501079,5.789084 C11.8641444,7.07085076 10.5917782,7.91545155 9.16326833,8.00473342 L9.16326833,9.0043468 L14.8277442,9.0043468 C15.5638392,9.0043468 16.160562,9.60106968 16.160562,10.3371647 L16.160562,12.0964842 C16.9451692,12.3432317 17.4323008,13.1256345 17.3074813,13.9385999 C17.1826619,14.7515654 16.4832471,15.3517905 15.6607553,15.3517905 C14.8382636,15.3517905 14.1388488,14.7515654 14.0140294,13.9385999 C13.8892099,13.1256345 14.3763415,12.3432317 15.1609486,12.0964842 L15.1609486,10.3371647 C15.1575552,10.1571313 15.0143363,10.0109896 14.8344083,10.0039602 L9.16326833,10.0039602 L9.16326833,13.3893175 C10.3264799,13.6445049 11.1106495,14.7349977 10.9823083,15.9189361 C10.8539671,17.1028746 9.85433601,18 8.66346164,18 C7.47258727,18 6.47295613,17.1028746 6.34461496,15.9189361 C6.2162738,14.7349977 7.00044337,13.6445049 8.16365495,13.3893175 L8.16365495,10.0039602 L2.49917909,10.0039602 C2.31914578,10.0073536 2.17300404,10.1505725 2.16597463,10.3305006 L2.16597463,10.3305006 L2.16597463,12.0698279 C2.95058177,12.3165754 3.43771338,13.0989781 3.31289392,13.9119436 C3.18807446,14.724909 2.48865971,15.3251342 1.66616794,15.3251342 C0.843676174,15.3251342 0.144261415,14.724909 0.019441957,13.9119436 C-0.105377501,13.0989781 0.381754109,12.3165754 1.16636125,12.0698279 L1.16636125,10.3371647 C1.16636125,9.60106968 1.76308412,9.0043468 2.49917909,9.0043468 L8.18364722,9.0043468 L8.18364722,7.97141297 C6.09936864,7.70124025 4.58002589,5.86357047 4.70642726,3.76565885 C4.83282863,1.66774723 6.56182236,0.0257931162 8.66346164,0.00782632915 Z M8.66346164,14.3356182 C7.92736667,14.3356182 7.33064379,14.9323411 7.33064379,15.668436 C7.33064379,16.404531 7.92736667,17.0012539 8.66346164,17.0012539 C9.39955661,17.0012539 9.99627949,16.404531 9.99627949,15.668436 C9.99627949,14.9323411 9.39955661,14.3356182 8.66346164,14.3356182 Z M1.66616794,13.0028003 C1.29812045,13.0028003 0.999759016,13.3011618 0.999759016,13.6692093 C0.999759016,14.0372568 1.29812045,14.3356182 1.66616794,14.3356182 C2.03421543,14.3356182 2.33257686,14.0372568 2.33257686,13.6692093 C2.33257686,13.3011618 2.03421543,13.0028003 1.66616794,13.0028003 Z M15.6607553,13.0028003 C15.2927079,13.0028003 14.9943464,13.3011618 14.9943464,13.6692093 C14.9943464,14.0372568 15.2927079,14.3356182 15.6607553,14.3356182 C16.0288028,14.3356182 16.3271643,14.0372568 16.3271643,13.6692093 C16.3271643,13.3011618 16.0288028,13.0028003 15.6607553,13.0028003 Z M8.66346164,1.00743227 C7.00724795,1.00743227 5.66462148,2.35006619 5.66462148,4.00627987 C5.66462148,5.66249356 7.00724795,7.00512003 8.66346164,7.00512003 C10.3196753,7.00512003 11.6623092,5.66249356 11.6623092,4.00627987 C11.6640764,3.21039533 11.3486979,2.44659712 10.7859212,1.88382036 C10.2231444,1.3210436 9.45934619,1.00566516 8.66346164,1.00743227 L8.66346164,1.00743227 Z" id="Shape" fill="#000000" fill-rule="nonzero"></path>
            </g>
        </g>
    </g>
</svg>