<?xml version="1.0" encoding="UTF-8"?>
<svg width="32px" height="32px" viewBox="0 0 32 32" version="1.1" xmlns="http://www.w3.org/2000/svg" xmlns:xlink="http://www.w3.org/1999/xlink">
    <title>0A2D518E-B601-4B6F-8129-42BAC64F1ACF</title>
    <defs>
        <filter color-interpolation-filters="auto" id="filter-1">
            <feColorMatrix in="SourceGraphic" type="matrix" values="0 0 0 0 0.443137 0 0 0 0 0.450980 0 0 0 0 0.458824 0 0 0 1.000000 0"></feColorMatrix>
        </filter>
    </defs>
    <g id="Symbols" stroke="none" stroke-width="1" fill="none" fill-rule="evenodd">
        <g id="Icon/Bookmark">
            <polygon id="Rectangle" fill="#717375" points="9.18798364 7.81876504 22.7636266 7.81876504 22.7636266 20.2462149 22.7636266 24.4045693 15.971931 20.2462149 9.18798364 24.2438966 9.18798364 20.2462149"></polygon>
            <g filter="url(#filter-1)" id="noun_collection_3743656">
                <g transform="translate(8.372878, 7.000000)">
                    <path d="M13.983054,-1.77635684e-15 L1.27118956,-1.77635684e-15 C0.569132676,-1.77635684e-15 1.55722476e-06,0.569129555 1.55722476e-06,1.27118644 L1.55722476e-06,16.5254237 C-0.000726862013,16.9919401 0.254140688,17.4213747 0.663997591,17.6442095 C1.0738545,17.8670443 1.57284194,17.8474726 1.96398617,17.5932203 L7.4555116,14.0275424 C7.55907121,13.957087 7.69517232,13.957087 7.79873193,14.0275424 L13.2902574,17.5932203 C13.6814016,17.8474726 14.180389,17.8670443 14.5902459,17.6442095 C15.0001028,17.4213747 15.2549704,16.9919401 15.254242,16.5254237 L15.254242,1.27118644 C15.254242,0.569129555 14.6851109,-1.77635684e-15 13.983054,-1.77635684e-15 Z M14.3008506,16.5254237 C14.3008506,16.700938 14.1585682,16.8432203 13.983054,16.8432203 C13.9221605,16.8432203 13.8625943,16.8254133 13.8114438,16.7923729 L8.31991838,13.2266949 C7.89864316,12.9528577 7.35560037,12.9528577 6.93432516,13.2266949 L1.44279973,16.7923729 C1.34507723,16.8550704 1.22094074,16.8594849 1.11901154,16.8038871 C1.01708234,16.7482894 0.953586167,16.6415299 0.953392952,16.5254237 L0.953392952,1.27118644 C0.953392952,1.09567222 1.09567534,0.953389831 1.27118956,0.953389831 L13.983054,0.953389831 C14.1585682,0.953389831 14.3008506,1.09567222 14.3008506,1.27118644 L14.3008506,16.5254237 Z" id="Shape" fill="#000000" fill-rule="nonzero"></path>
                </g>
            </g>
        </g>
    </g>
</svg>