<svg xmlns="http://www.w3.org/2000/svg" width="32" height="32" viewBox="0 0 32 32">
    <g fill="none" fill-rule="evenodd">
        <g fill="#717375">
            <path d="M16 9.571c1.583-.021 3.147.335 4.564 1.038l.974.572.225.155C24.023 12.949 25 15.206 25 16c0 1.286-2.571 6.429-9 6.429-1.619.022-3.219-.351-4.66-1.087l-.856-.501C8.048 19.214 7 16.823 7 16c0-1.286 2.571-6.429 9-6.429zm0 .965c-1.28-.016-2.55.235-3.729.739-.93.413-1.778.992-2.5 1.71-.568.566-1.045 1.217-1.415 1.929-.124.242-.23.493-.315.752 0 .09-.051.18-.064.25-.013.071 0 .084 0 .103v.103c0 .026.01.066.023.111l.041.14c.086.258.191.51.315.752.37.712.847 1.362 1.415 1.929.427.425.899.802 1.408 1.125l.005-.007.033.048.166.082c.479.236.766.376.863.422.01.004.022.003.038-.003l-.032-.015c1.182.513 2.46.771 3.748.758 1.28.016 2.55-.235 3.729-.739.93-.413 1.778-.992 2.5-1.71.568-.566 1.045-1.217 1.415-1.929.124-.242.23-.493.315-.752 0-.09.051-.18.064-.25.013-.071 0-.084 0-.103v-.103c0-.026-.01-.066-.023-.111l-.041-.14c-.086-.258-.191-.51-.315-.752-.37-.712-.847-1.362-1.415-1.929-.427-.425-.899-.802-1.408-1.125l-.166-.082c-.314-.155-.546-.269-.696-.341h.001l-.212-.104c-1.182-.513-2.46-.771-3.748-.758zm2.053 3.004c.276.25.448.428.518.531.96 1.28.833 3.07-.298 4.202-1.131 1.13-2.922 1.258-4.202.298-.328-.286-.528-.488-.604-.601-.011-.017-.029-.026-.053-.026l.015-.015c-.96-1.28-.833-3.07.298-4.202 1.131-1.13 2.922-1.258 4.202-.298zm-1.995.18c-1.28 0-2.318 1.038-2.318 2.319 0 1.28 1.038 2.317 2.318 2.317s2.318-1.037 2.318-2.317c0-1.28-1.038-2.318-2.318-2.318z"/>
        </g>
    </g>
</svg>
