<svg xmlns="http://www.w3.org/2000/svg" width="32" height="32" viewBox="0 0 32 32">
    <defs>
        <filter id="1jc4nldcha" color-interpolation-filters="auto">
            <feColorMatrix in="SourceGraphic" values="0 0 0 0 0.443137 0 0 0 0 0.450980 0 0 0 0 0.458824 0 0 0 1.000000 0"/>
        </filter>
    </defs>
    <g fill="none" fill-rule="evenodd">
        <g filter="url(#1jc4nldcha)">
            <g fill="#000" fill-rule="nonzero" transform="translate(7.000000, 7.000000)">
                <path d="M9 0C4.03 0 0 4.03 0 9s4.03 9 9 9 9-4.03 9-9-4.03-9-9-9zm0 17.036C4.562 17.036.964 13.438.964 9S4.562.964 9 .964 17.036 4.562 17.036 9c0 2.131-.847 4.175-2.354 5.682-1.507 1.507-3.55 2.354-5.682 2.354z"/>
                <circle cx="9" cy="12.857" r="1"/>
                <path d="M9 4.179c1.04-.001 1.98.625 2.378 1.587.398.961.178 2.068-.559 2.803l-.295.29c-.135.135-.251.263-.367.385-.146.16-.283.327-.411.502-.127.155-.218.338-.264.533v.18c0 .267-.216.482-.482.482s-.482-.215-.482-.482v-.173c.029-.404.184-.789.443-1.1.15-.205.311-.403.483-.591.122-.135.25-.27.398-.411l.296-.296c.3-.303.468-.712.47-1.138 0-.888-.72-1.607-1.608-1.607-.888 0-1.607.72-1.607 1.607 0 .266-.216.482-.482.482-.267 0-.482-.216-.482-.482 0-1.42 1.15-2.571 2.571-2.571z"/>
            </g>
        </g>
    </g>
</svg>
