<svg xmlns="http://www.w3.org/2000/svg" width="32" height="32" viewBox="0 0 32 32">
    <defs>
        <filter id="dfopct2mra" color-interpolation-filters="auto">
            <feColorMatrix in="SourceGraphic" values="0 0 0 0 0.443137 0 0 0 0 0.450980 0 0 0 0 0.458824 0 0 0 1.000000 0"/>
        </filter>
    </defs>
    <g fill="none" fill-rule="evenodd">
        <g filter="url(#dfopct2mra)">
            <g>
                <path fill="#000" fill-rule="nonzero" d="M1.977 11.852c.92-.002 1.719-.639 1.924-1.537H14.1c.223.98 1.147 1.637 2.147 1.524.999-.112 1.754-.957 1.754-1.963 0-1.005-.755-1.85-1.754-1.962-1-.113-1.924.543-2.147 1.524H7.484c.082-.12.15-.248.204-.382l2.31-5.942c.163-.423.57-.702 1.023-.7H14.1c.223.98 1.147 1.637 2.147 1.524C17.245 3.826 18 2.981 18 1.975 18 .97 17.245.125 16.246.013c-1-.113-1.924.543-2.147 1.523H11.02c-.815-.003-1.548.498-1.84 1.26L6.87 8.738c-.163.423-.57.702-1.023.7H3.9c-.23-1.009-1.198-1.669-2.22-1.515-1.023.154-1.753 1.07-1.675 2.102.077 1.03.937 1.828 1.97 1.827zm14.046-3.073c.606 0 1.098.491 1.098 1.097 0 .607-.492 1.098-1.098 1.098-.606 0-1.097-.491-1.097-1.098 0-.605.491-1.096 1.097-1.097zm0-7.901c.606 0 1.098.491 1.098 1.097s-.492 1.098-1.098 1.098c-.606 0-1.097-.492-1.097-1.098 0-.605.491-1.096 1.097-1.097zM1.977 8.779c.606 0 1.097.491 1.097 1.097 0 .607-.491 1.098-1.097 1.098S.879 10.483.879 9.876c.001-.605.492-1.096 1.098-1.097z" transform="translate(7.000000, 10.074074)"/>
            </g>
        </g>
    </g>
</svg>
