<svg xmlns="http://www.w3.org/2000/svg" xmlns:xlink="http://www.w3.org/1999/xlink" width="32" height="32" viewBox="0 0 32 32">
    <defs>
        <path id="r7kf6y6r3a" d="M0 0L17.989 0 17.989 18 0 18z"/>
    </defs>
    <g fill="none" fill-rule="evenodd">
        <g transform="translate(7.005681, 7.000000)">
            <mask id="la474go8yb" fill="#fff">
                <use xlink:href="#r7kf6y6r3a"/>
            </mask>
            <path fill="#0A0B09" d="M17.65 8.198L9.79.34c-.452-.452-1.186-.452-1.64 0L6.52 1.972l2.07 2.07c.48-.163 1.033-.054 1.416.33.386.386.494.942.327 1.425l1.995 1.995c.483-.166 1.04-.059 1.426.327.538.539.538 1.412 0 1.951-.54.54-1.412.54-1.952 0-.405-.406-.505-1.001-.3-1.5l-1.86-1.861v4.897c.13.065.255.151.364.26.539.54.539 1.412 0 1.952-.539.538-1.412.538-1.95 0-.54-.54-.54-1.413 0-1.951.133-.133.287-.234.451-.302V6.623c-.164-.067-.318-.167-.452-.3-.408-.408-.506-1.007-.296-1.508L5.717 2.773.327 8.162c-.452.453-.452 1.187 0 1.64l7.86 7.859c.453.452 1.187.452 1.64 0l7.822-7.823c.453-.452.453-1.187 0-1.64" mask="url(#la474go8yb)"/>
        </g>
    </g>
</svg>
