<svg width="24" height="24" viewBox="0 0 24 24" fill="none" xmlns="http://www.w3.org/2000/svg">
    <path fill-rule="evenodd" clip-rule="evenodd" d="M4 5h5a2 2 0 0 1 2 2v9a1 1 0 0 1-1 1H4a1 1 0 0 1-1-1V6a1 1 0 0 1 1-1zm10 14c-.35 0-.687-.06-1-.17V19a1 1 0 1 1-2 0v-.17c-.313.11-.65.17-1 .17H4a3 3 0 0 1-3-3V6a3 3 0 0 1 3-3h5a3.99 3.99 0 0 1 3 1.354A3.99 3.99 0 0 1 15 3h5a3 3 0 0 1 3 3v10a3 3 0 0 1-3 3h-6zM13 7v9a1 1 0 0 0 1 1h6a1 1 0 0 0 1-1V6a1 1 0 0 0-1-1h-5a2 2 0 0 0-2 2zM5 7h4v2H5V7zm10 0h4v2h-4V7zm4 3h-4v2h4v-2zM5 10h4v2H5v-2zm14 3h-4v2h4v-2zM5 13h4v2H5v-2z" fill="#160C3C"/>
</svg>
